<svg width="106" height="129" viewBox="0 0 106 129" fill="none" xmlns="http://www.w3.org/2000/svg">
<path d="M98.8867 58.3508C90.034 58.3508 97.3491 41.9164 88.6828 41.8233C84.7844 41.7767 81.088 46.6496 79.9077 51.1656C75.357 68.795 81.8335 92.0267 81.7714 113.52C81.7714 119.169 78.4943 123.716 74.9066 123.67C71.7383 123.639 68.1661 121.062 67.9953 114.622C67.8866 110.184 69.6727 106.413 70.9307 100.283C72.3906 93.1595 70.7598 80.4496 67.3585 80.7134C65.5414 80.8686 64.0659 83.1809 63.3359 85.5398C62.606 87.9452 62.8545 90.1023 62.9011 94.6649C62.9787 102.626 59.6706 103.604 58.0864 103.573C54.4521 103.526 51.7342 101.4 52.7437 94.8201C54.359 84.3138 54.7628 77.2372 53.1631 70.5952C52.138 66.3585 49.7928 61.9667 46.0032 61.827C42.9125 61.7339 37.9115 65.7533 36.2962 75.1732C33.1434 93.6717 37.2281 97.3186 37.2281 115.445C37.2281 122.692 35.0382 128.589 28.0182 128.434C21.8834 128.31 20.3302 120.985 20.7185 113.241C21.231 102.517 24.6324 96.2168 25.0983 86.5175C25.3779 80.6979 26.0923 73.4041 25.0983 64.6049C24.6634 60.7407 24.1509 50.0327 18.6684 50.4362C14.7235 50.7311 13.4034 54.9677 12.9685 59.2043C12.5647 63.1306 13.2946 66.0947 13.5121 69.4933C13.8538 74.5525 11.99 79.4254 6.32115 79.0529C0.341667 78.6494 0.38826 69.602 0.139762 64.5583C-0.186392 57.7145 0.139762 53.152 0.264011 48.3101C0.434854 41.3577 2.9043 28.9892 2.43837 15.1619C2.252 9.49753 1.95691 4.08145 1.77053 0.729381C4.62826 26.4751 26.4806 46.4789 53.0077 46.4789C79.5349 46.4789 101.776 26.0872 104.307 0C104.229 6.5955 104.121 23.93 105.239 33.8155C107.429 53.3072 104.804 58.3508 98.8867 58.3508Z" fill="#FFFBF8"/>
</svg>
