<svg width="32" height="32" viewBox="0 0 32 32" fill="none" xmlns="http://www.w3.org/2000/svg">
<path d="M31.9978 16.0005C31.9978 24.0815 26.0078 30.7623 18.2265 31.8464C17.4989 31.9473 16.7545 32 15.9989 32C15.1267 32 14.2702 31.9305 13.4361 31.7959C5.81839 30.5694 0 23.9638 0 16.0005C0 7.16392 7.16368 0 16 0C24.8363 0 32 7.16392 32 16.0005H31.9978Z" fill="#85031F"/>
<path d="M18.2263 12.848V16.3336H22.5379L21.8552 21.0288H18.2263V31.8465C17.4987 31.9474 16.7543 32 15.9987 32C15.1265 32 14.27 31.9305 13.4359 31.796V21.0288H9.45947V16.3336H13.4359V12.0689C13.4359 9.42304 15.5805 7.27722 18.2274 7.27722V7.27947C18.2353 7.27947 18.242 7.27722 18.2498 7.27722H22.5391V11.3379H19.7364C18.9034 11.3379 18.2274 12.0139 18.2274 12.8469L18.2263 12.848Z" fill="#FFFBF8"/>
</svg>
