<svg width="217" height="39" viewBox="0 0 217 39" fill="none" xmlns="http://www.w3.org/2000/svg">
<path d="M72.7144 20.3322L72.7228 30.9894C72.7228 31.526 72.2855 31.963 71.7424 31.963H69.971C69.4306 31.963 68.9934 31.5287 68.9906 30.9922L68.985 29.4045C68.985 29.0117 68.4976 28.8292 68.233 29.1196C67.5534 29.8692 66.7123 30.4915 65.7124 30.9839C64.3086 31.6753 62.6848 32.0211 60.8382 32.0211C57.3483 32.0211 54.4935 30.8594 52.2681 28.5387C50.0455 26.2181 48.9314 23.2115 48.9314 19.519C48.9314 15.8264 50.065 12.8143 52.3349 10.4826C54.6049 8.15088 57.5182 6.98364 61.075 6.98364C64.0384 6.98364 66.5646 7.77747 68.6536 9.36237C69.9069 10.3139 70.8845 11.4728 71.592 12.8419C72.2994 14.2111 71.3218 15.8513 69.7649 15.8513C68.8903 15.8513 68.0687 15.3783 67.6843 14.5983C67.2052 13.6247 66.5145 12.8309 65.6093 12.2168C64.3448 11.3566 62.8324 10.9251 61.0778 10.9251C58.6602 10.9251 56.7607 11.7024 55.382 13.2513C54.0005 14.803 53.3126 16.8913 53.3126 19.519C53.3126 22.1466 54.0144 24.2709 55.4154 25.889C56.8191 27.5098 58.7047 28.3175 61.0778 28.3175C63.175 28.3175 64.9102 27.7809 66.2778 26.7049C67.4866 25.7534 68.2608 24.6747 68.5979 23.0898C68.6675 22.7551 68.4029 22.4426 68.0603 22.4426H63.6792C62.8659 22.4426 62.2086 21.7898 62.2086 20.9822C62.2086 20.1745 62.8659 19.5217 63.6792 19.5217H71.89C72.344 19.5217 72.7116 19.8868 72.7116 20.3377L72.7144 20.3322Z" fill="#FFFBF8"/>
<path d="M78.4437 28.4866C76.0958 26.0968 74.9204 23.1013 74.9204 19.5C74.9204 15.8987 76.0958 12.9032 78.4437 10.5134C80.7917 8.1236 83.8025 6.92871 87.4762 6.92871C91.1499 6.92871 94.158 8.1236 96.5087 10.5134C98.8566 12.9032 100.032 15.8987 100.032 19.5C100.032 23.1013 98.8566 26.0968 96.5087 28.4866C94.1607 30.8764 91.1499 32.0713 87.4762 32.0713C83.8025 32.0713 80.7944 30.8764 78.4437 28.4866ZM81.591 13.2489C80.0619 14.8338 79.2988 16.9193 79.2988 19.5C79.2988 22.0806 80.0619 24.1662 81.591 25.7511C83.1173 27.3359 85.0809 28.1298 87.4762 28.1298C89.8715 28.1298 91.8323 27.3359 93.3614 25.7511C94.8877 24.1662 95.6536 22.0806 95.6536 19.5C95.6536 16.9193 94.8905 14.8338 93.3614 13.2489C91.8323 11.664 89.8715 10.8702 87.4762 10.8702C85.0809 10.8702 83.1201 11.664 81.591 13.2489Z" fill="#FFFBF8"/>
<path d="M106.123 14.5716C104.962 14.5716 104.018 14.2369 103.285 13.5703C102.555 12.901 102.188 11.9799 102.188 10.8044C102.188 9.62884 102.514 8.64139 103.177 7.93884C103.839 7.23629 104.817 6.88501 106.118 6.88501H121.124C122.425 6.88501 123.406 7.23629 124.066 7.93884C124.729 8.64139 125.063 9.65373 125.063 10.8044C125.063 11.955 124.698 12.901 123.965 13.5703C123.236 14.2397 122.289 14.5716 121.127 14.5716C120.339 14.5716 119.704 14.4859 119.231 14.3116C118.754 14.1401 118.364 13.9299 118.064 13.6893C117.763 13.4459 117.473 13.2412 117.195 13.0669C116.916 12.8927 116.568 12.8069 116.15 12.8069L115.838 13.4293C115.93 13.6367 116.094 13.9299 116.326 14.3116C116.557 14.6933 116.777 15.2327 116.988 15.938C117.197 16.6405 117.3 17.592 117.3 18.7897V28.7803C117.3 29.7263 116.947 30.5091 116.239 31.1314C115.532 31.7537 114.666 32.0663 113.646 32.0663C112.627 32.0663 111.724 31.7565 111.017 31.1314C110.309 30.5091 109.956 29.7263 109.956 28.7803V18.7897C109.956 17.592 110.062 16.6405 110.268 15.938C110.477 15.2354 110.702 14.6933 110.947 14.3116C111.192 13.9299 111.359 13.6367 111.451 13.4293L111.103 12.8069C110.685 12.8069 110.337 12.8927 110.059 13.0669C109.78 13.2412 109.491 13.4486 109.19 13.6893C108.889 13.9327 108.505 14.1374 108.042 14.3116C107.577 14.4831 106.939 14.5716 106.126 14.5716H106.123Z" fill="#FFFBF8"/>
<path d="M144.041 32.1185C142.88 32.1185 141.964 31.7672 141.289 31.0646C140.615 30.3621 140.256 29.4465 140.209 28.3153C140.117 26.357 139.621 24.9685 138.73 24.1497C137.836 23.331 136.647 22.9216 135.162 22.9216H134.466V28.4536C134.466 29.6512 134.14 30.5612 133.491 31.1863C132.842 31.8087 131.981 32.1212 130.915 32.1212C129.778 32.1212 128.884 31.8114 128.235 31.1863C127.586 30.564 127.26 29.654 127.26 28.4536V23.5799C127.26 21.1376 127.625 19.2816 128.358 18.0148C129.087 16.748 130.023 15.8353 131.16 15.2821L130.987 14.6238H130.43C129.363 14.6238 128.519 14.2836 127.906 13.6031C127.291 12.9227 126.959 11.9961 126.915 10.8206C126.893 9.66718 127.205 8.73505 127.856 8.02143C128.505 7.30782 129.366 6.94824 130.433 6.94824H139.312C141.796 6.94824 143.802 7.54845 145.334 8.74611C146.865 9.94377 147.631 11.8578 147.631 14.4855C147.631 15.8463 147.4 16.9804 146.935 17.8904C146.47 18.8004 145.88 19.4974 145.158 19.9814C144.44 20.4655 143.685 20.7531 142.897 20.8444V21.2925C144.337 21.6382 145.526 22.3989 146.464 23.5744C147.403 24.7499 147.874 26.3293 147.874 28.3097C147.874 29.5765 147.531 30.528 146.846 31.1614C146.161 31.7948 145.228 32.1129 144.044 32.1129L144.041 32.1185ZM134.293 17.6331C134.293 18.1393 134.385 18.474 134.572 18.6344C134.758 18.7948 135.106 18.8778 135.616 18.8778H138.889C139.863 18.8778 140.571 18.6593 141.011 18.2195C141.451 17.7797 141.674 17.1712 141.674 16.3885C141.674 15.6057 141.454 14.9585 141.011 14.5214C140.571 14.0844 139.863 13.8631 138.889 13.8631H135.616C135.106 13.8631 134.758 13.9323 134.572 14.0706C134.385 14.2089 134.293 14.5436 134.293 15.0719V17.6304V17.6331Z" fill="#FFFBF8"/>
<path d="M160.427 32.1184C159.034 32.0962 157.706 31.9109 156.441 31.5652C155.177 31.2194 154.107 30.7575 153.11 29.9748C152.113 29.192 151.327 28.1437 150.759 26.8271C150.191 25.5133 149.907 23.8896 149.907 21.9535V10.2314C149.907 9.12497 150.272 8.30071 151.004 7.75858C151.734 7.21646 152.589 6.94539 153.564 6.94539C154.539 6.94539 155.363 7.21646 156.104 7.75858C156.848 8.30071 157.218 9.12497 157.218 10.2314V20.3271C157.218 21.9645 157.605 23.1622 158.385 23.9228C159.162 24.6835 160.165 25.0292 161.396 24.9601C162.697 24.8688 163.63 24.3737 164.198 23.472C164.766 22.5731 164.922 21.3754 164.669 19.8762C164.507 18.8611 164.326 18.0092 164.128 17.3177C163.931 16.6262 163.733 16.0094 163.538 15.4673C163.34 14.9252 163.173 14.3831 163.034 13.8409C162.894 13.2988 162.789 12.6599 162.722 11.9214C162.583 10.3779 162.9 9.16092 163.68 8.27305C164.457 7.38518 165.485 6.94263 166.76 6.94263C168.036 6.94263 169.036 7.36858 169.754 8.2205C170.473 9.07241 170.835 10.3641 170.835 12.0928V21.9452C170.835 23.8813 170.562 25.5133 170.016 26.8382C169.47 28.1631 168.716 29.2224 167.755 30.019C166.791 30.8156 165.624 31.2748 164.385 31.6094C163.142 31.9441 161.825 32.1101 160.432 32.1101L160.427 32.1184Z" fill="#FFFBF8"/>
<path d="M185.003 32.1185C182.728 32.1185 180.678 31.7202 178.856 30.7881C177.035 29.8532 175.6 28.4675 174.556 26.6226C173.512 24.7777 172.991 22.5068 172.991 19.8128C172.991 17.1187 173.517 14.787 174.576 12.8287C175.631 10.8704 177.04 9.55938 178.887 8.51109C180.731 7.46279 182.839 6.93726 185.207 6.93726C187.945 6.93726 190.047 7.31896 191.507 8.07683C192.966 8.8347 193.741 9.77513 193.741 11.2715C193.741 12.4249 193.429 13.3764 192.799 14.1232C192.173 14.8728 191.315 15.2462 190.223 15.2462C189.295 15.2462 188.396 15.1245 187.524 14.8839C186.652 14.6432 185.638 14.5215 184.477 14.5215C182.992 14.5215 181.82 14.9475 180.962 15.7994C180.104 16.6513 179.675 17.7687 179.675 19.1517C179.675 20.5347 180.104 21.6466 180.962 22.5566C181.82 23.4666 182.992 23.923 184.477 23.923C185.265 23.923 185.992 23.8594 186.652 23.7321C187.315 23.6049 187.964 23.4721 188.602 23.3339C189.24 23.1956 189.93 23.1264 190.674 23.1264C191.905 23.1264 192.81 23.5247 193.39 24.3185C193.969 25.1151 194.259 26.0998 194.259 27.2753C194.259 28.4509 193.83 29.4024 192.972 30.127C192.114 30.8517 190.986 31.3081 189.58 31.6317C188.176 31.9553 186.649 32.1158 185.001 32.1158L185.003 32.1185Z" fill="#FFFBF8"/>
<path d="M203.656 16.5264L208.878 9.19664C209.806 7.88281 210.809 7.19408 211.898 7.02259C212.989 6.8511 213.975 7.10834 214.855 7.79983C215.435 8.23685 215.828 8.77068 216.014 9.50919C216.201 10.2477 216.142 11.0305 215.841 11.8603C215.541 12.69 214.936 13.4728 214.031 14.2113L208.216 18.8803V19.6049C208.959 19.6049 209.171 19.6768 210.171 19.8622C211.168 20.0475 212.073 20.4624 212.886 21.1068C213.535 21.5909 214.098 22.1441 214.574 22.7664C215.05 23.3888 215.426 24.1549 215.705 25.0649C215.984 25.9749 216.123 27.1228 216.123 28.5058C216.123 29.6343 215.789 30.4226 215.173 31.103C214.557 31.7834 213.647 32.1237 212.441 32.1237C211.235 32.1237 210.31 31.7834 209.672 31.103C209.034 30.4226 208.742 29.6371 208.742 28.5058C208.742 27.239 208.539 26.2294 208.132 25.4798C207.725 24.7303 207.185 24.1826 206.514 23.8368C205.84 23.4911 205.11 23.3168 204.319 23.3168L203.269 23.3362V28.763C203.269 29.7532 202.926 30.572 202.241 31.2192C201.556 31.8637 200.668 32.1181 199.601 32.1181C198.534 32.1181 197.668 31.8637 196.986 31.2192C196.3 30.5747 195.958 29.756 195.958 28.763V10.4745C195.958 9.4594 196.286 8.66281 196.958 7.97132C197.632 7.27983 198.512 6.93408 199.604 6.93408C200.765 6.93408 201.662 7.27429 202.302 7.95472C202.94 8.63515 203.269 9.41515 203.269 10.4054V16.4573L203.653 16.5264H203.656Z" fill="#FFFBF8"/>
<path d="M17.9152 39C17.2049 39 16.4947 38.8202 15.8541 38.4606C14.5311 37.7166 2.86104 30.9206 0.47967 21.8953C-0.809889 17.0079 0.552086 11.0251 3.94727 6.65213C7.2784 2.36213 12.2417 0 17.9152 0C25.7416 0 32.3983 4.8266 34.8688 12.2974C35.5902 14.4743 34.3953 16.8226 32.2034 17.5362C30.0114 18.2526 27.6467 17.066 26.9282 14.8891C25.5829 10.826 22.132 8.30064 17.918 8.30064C14.8041 8.30064 12.3308 9.45128 10.5677 11.7221C8.54289 14.3277 8.03041 17.7491 8.56796 19.7877C9.12222 21.887 10.9716 24.1689 13.1608 26.2019C14.559 27.5019 17.2857 28.1906 19.4303 27.8062C21.2407 27.4826 22.6138 26.1604 22.6138 26.1604C22.6138 26.1604 20.7895 24.7277 19.9289 24.0389C18.1909 22.6504 17.7508 20.1389 19.0376 18.3328C20.4386 16.3689 23.1904 16.0038 25.0565 17.4809C25.1122 17.5251 26.4686 18.6011 27.8222 19.8596C30.3066 22.1664 31.7939 24.0721 31.5377 26.4453C31.2703 28.9153 29.3986 31.4351 25.2793 34.8649C22.8589 36.8813 20.3857 38.2006 20.2882 38.267C19.5779 38.7511 18.7507 38.9972 17.9207 38.9972L17.9152 39Z" fill="#FFFBF8"/>
</svg>
