<svg width="122" height="112" viewBox="0 0 122 112" fill="none" xmlns="http://www.w3.org/2000/svg">
<path d="M38.4126 110.268L117.183 64.7859C121.211 62.4595 122.59 57.3274 120.275 53.3117C117.961 49.3019 112.817 47.9282 108.795 50.2546L30.0246 95.7366C25.9972 98.063 24.6178 103.195 26.9325 107.211C29.2472 111.227 34.391 112.594 38.4126 110.268Z" fill="#FFFBF8"/>
<path d="M14.2015 85.1625C16.5162 89.1782 21.6601 90.546 25.6874 88.2196L104.458 42.7435C108.48 40.4229 109.865 35.2849 107.55 31.2751C105.235 27.2652 100.092 25.8916 96.0702 28.218L88.0563 32.8475L83.1054 51.3243L64.6285 46.3734L17.2995 73.7C13.2721 76.0264 11.8868 81.1585 14.2015 85.1742V85.1625Z" fill="#FFFBF8"/>
<path d="M0.546986 60.6007C-1.58069 49.0446 1.5465 35.2907 27.1955 16.884C31.8074 13.5697 36.7408 10.7231 41.9139 8.38499C70.6784 -4.6207 84.1517 -0.458897 93.0949 7.16332C97.4496 10.8751 96.6956 17.8251 91.7447 20.6834L12.9272 66.1887C7.97627 69.0471 1.5816 66.2238 0.546986 60.5948V60.6007ZM41.5164 21.8291C40.4759 20.8705 39.3303 20.4204 38.9737 20.8062C38.5996 21.2153 39.149 22.3084 40.1953 23.267C41.2416 24.2256 42.3815 24.6757 42.7497 24.2782C43.1121 23.8808 42.5568 22.7935 41.5164 21.8291ZM47.8293 9.46635C47.2974 9.35529 46.6485 10.3958 46.3504 11.7752C46.0698 13.1722 46.2569 14.3822 46.7888 14.4874C47.3149 14.5985 47.9812 13.5639 48.2618 12.1727C48.5541 10.7932 48.3554 9.58325 47.8293 9.46635ZM65.2949 14.2536C66.499 13.4996 67.2355 12.5176 66.9432 12.0616C66.651 11.6116 65.4469 11.8571 64.2486 12.6111C63.062 13.371 62.3255 14.3647 62.6119 14.8206C62.9041 15.2707 64.1025 15.031 65.3008 14.2595L65.2949 14.2536ZM59.6308 9.61833C60.1686 9.59495 60.5602 8.42592 60.4959 7.01137C60.4375 5.59097 59.9406 4.4628 59.4087 4.49203C58.8709 4.51541 58.4793 5.67278 58.5378 7.09318C58.6021 8.50773 59.093 9.64171 59.625 9.61833H59.6308ZM55.6619 10.5302C56.4335 11.7285 57.4096 12.4591 57.8655 12.1727C58.3215 11.8746 58.0818 10.6822 57.3161 9.47805C56.5562 8.29146 55.5684 7.56081 55.1124 7.83554C54.6565 8.13364 54.9021 9.33191 55.6619 10.5302ZM53.1543 21.2971C53.6862 21.2036 53.9317 20.0053 53.7154 18.6025C53.4816 17.2055 52.8679 16.1533 52.3359 16.2352C51.804 16.3228 51.5586 17.5153 51.7807 18.9298C52.0086 20.321 52.6282 21.3907 53.1543 21.303V21.2971ZM51.2136 23.9743C52.3242 24.8569 53.4933 25.2252 53.8324 24.816C54.1772 24.3893 53.5459 23.3313 52.4412 22.437C51.3306 21.5602 50.1557 21.1919 49.8225 21.6011C49.4894 22.0278 50.1147 23.08 51.2136 23.9684V23.9743ZM45.9529 21.7999C46.3855 22.1214 47.4259 21.4667 48.2618 20.3268C49.1152 19.1929 49.4367 18.0063 49.0159 17.679C48.5833 17.3692 47.5487 18.0238 46.6894 19.1636C45.8477 20.3035 45.5087 21.4842 45.9471 21.7999H45.9529ZM41.2825 14.1075C40.8383 12.7572 40.0668 11.7986 39.5465 11.9623C39.0321 12.1318 38.9796 13.3593 39.4296 14.7096C39.8622 16.0598 40.6454 17.0068 41.154 16.8372C41.6684 16.6794 41.7209 15.446 41.2884 14.1075H41.2825ZM45.7717 33.8177C46.1751 34.1801 47.2739 33.6248 48.2326 32.5844C49.1912 31.5381 49.6413 30.3982 49.2438 30.03C48.8463 29.6676 47.7416 30.2229 46.7947 31.2633C45.836 32.3038 45.3743 33.4436 45.7717 33.8177ZM34.993 23.7931C33.6603 23.2845 32.427 23.3079 32.24 23.8048C32.0587 24.3133 32.9706 25.12 34.3033 25.6226C35.6244 26.1136 36.8518 26.1078 37.0389 25.5993C37.2318 25.1024 36.3083 24.2841 34.9873 23.7931H34.993ZM35.262 32.3447C35.6828 32.6837 36.7291 32.0524 37.6059 30.9418C38.4886 29.8195 38.8568 28.6505 38.4359 28.3115C38.0092 27.9783 36.9513 28.6154 36.0745 29.726C35.1977 30.8308 34.8411 32.0174 35.262 32.3388V32.3447ZM27.1779 27.99C27.6865 28.1653 28.4815 27.2359 28.9608 25.9032C29.4401 24.5588 29.4226 23.3372 28.914 23.156C28.4055 22.9689 27.6047 23.9042 27.1254 25.2369C26.646 26.5696 26.6753 27.7971 27.1838 27.9841L27.1779 27.99ZM30.539 38.7394C31.5794 39.698 32.7192 40.1539 33.0933 39.7506C33.4557 39.359 32.9005 38.2484 31.86 37.3015C30.8137 36.3428 29.6739 35.8928 29.3115 36.2785C28.9432 36.6819 29.4868 37.7808 30.539 38.7394ZM22.759 38.0321C23.2792 37.8977 23.4078 36.6819 23.0395 35.3024C22.6713 33.9404 21.9582 32.9409 21.4438 33.0812C20.9177 33.2156 20.795 34.4431 21.1632 35.8109C21.5256 37.1846 22.2446 38.1782 22.759 38.0321ZM13.9209 36.185C14.3301 36.5299 15.4056 35.922 16.3175 34.8348C17.2176 33.7359 17.6151 32.5785 17.2001 32.2336C16.7851 31.8829 15.7154 32.4908 14.8153 33.578C13.9093 34.6769 13.5059 35.8343 13.9209 36.185Z" fill="#FFFBF8"/>
</svg>
