<svg width="24" height="24" viewBox="0 0 24 24" fill="none" xmlns="http://www.w3.org/2000/svg">
<path d="M3.67699 17.25H20.627V18.375C20.627 19.1706 20.3109 19.9337 19.7483 20.4963C19.1857 21.0589 18.4226 21.375 17.627 21.375H6.67699C5.88134 21.375 5.11827 21.0589 4.55566 20.4963C3.99305 19.9337 3.67699 19.1706 3.67699 18.375V17.25Z" stroke="#4F4F4F" stroke-width="2" stroke-linecap="round" stroke-linejoin="round"/>
<path d="M18.6019 12.6749H20.552C20.8537 12.6649 21.1544 12.7156 21.4361 12.8242C21.7178 12.9327 21.9747 13.0969 22.1917 13.3068C22.4086 13.5168 22.5811 13.7682 22.6988 14.0462C22.8165 14.3242 22.8771 14.623 22.877 14.9249C22.877 15.5416 22.632 16.1329 22.196 16.5689C21.76 17.005 21.1686 17.2499 20.552 17.2499H3.75196C3.45007 17.2501 3.15125 17.1895 2.87326 17.0718C2.59527 16.954 2.3438 16.7816 2.13385 16.5646C1.92391 16.3477 1.75977 16.0907 1.65121 15.809C1.54265 15.5273 1.49189 15.2266 1.50196 14.9249C1.49148 14.6266 1.54253 14.3294 1.6519 14.0516C1.76126 13.7739 1.92662 13.5217 2.13768 13.3106C2.34873 13.0996 2.60096 12.9342 2.87868 12.8249C3.1564 12.7155 3.45366 12.6644 3.75196 12.6749H10.352" stroke="#4F4F4F" stroke-width="2" stroke-linecap="round" stroke-linejoin="round"/>
<path d="M22.877 11.1751C22.8713 11.5707 22.7096 11.9481 22.427 12.2251C22.2955 12.3723 22.1333 12.4888 21.9519 12.5666C21.7705 12.6443 21.5742 12.6814 21.377 12.6751H17.477L14.927 15.6001L12.377 12.6751H2.92699C2.73338 12.6753 2.54173 12.6361 2.36376 12.5599C2.18579 12.4836 2.02523 12.3719 1.89187 12.2315C1.75852 12.0912 1.65518 11.9251 1.58815 11.7434C1.52111 11.5618 1.49178 11.3684 1.50197 11.1751C1.49178 10.9817 1.52111 10.7883 1.58815 10.6067C1.65518 10.425 1.75852 10.259 1.89187 10.1186C2.02523 9.97822 2.18579 9.86649 2.36376 9.79023C2.54173 9.71398 2.73338 9.67478 2.92699 9.67505H21.377C21.7748 9.67505 22.1564 9.83308 22.4377 10.1144C22.719 10.3957 22.877 10.7772 22.877 11.1751Z" stroke="#4F4F4F" stroke-width="2" stroke-linecap="round" stroke-linejoin="round"/>
<path d="M10.127 3H14.252C15.9626 3 17.6032 3.67955 18.8128 4.88916C20.0224 6.09877 20.702 7.73936 20.702 9.45H3.67699C3.67699 7.73936 4.35652 6.09877 5.56613 4.88916C6.77574 3.67955 8.41632 3 10.127 3Z" stroke="#4F4F4F" stroke-width="2" stroke-linecap="round" stroke-linejoin="round"/>
<path d="M7.95197 6.375L8.85198 7.35" stroke="#4F4F4F" stroke-width="2" stroke-linecap="round" stroke-linejoin="round"/>
<path d="M16.052 6L17.027 7.05" stroke="#4F4F4F" stroke-width="2" stroke-linecap="round" stroke-linejoin="round"/>
<path d="M11.552 6.4501L12.602 5.4751" stroke="#4F4F4F" stroke-width="2" stroke-linecap="round" stroke-linejoin="round"/>
</svg>
