<svg width="24" height="24" viewBox="0 0 24 24" fill="none" xmlns="http://www.w3.org/2000/svg">
<path d="M11.925 19.5001C13.499 19.5001 14.775 18.2241 14.775 16.6501C14.775 15.076 13.499 13.8 11.925 13.8C10.351 13.8 9.07501 15.076 9.07501 16.6501C9.07501 18.2241 10.351 19.5001 11.925 19.5001Z" stroke="#4F4F4F" stroke-width="2" stroke-linecap="round" stroke-linejoin="round"/>
<path d="M20.1 8.8501L18.6 22.2001H5.25L3.75 8.8501H7.125C7.5342 9.45908 8.07179 9.97108 8.7 10.3501L9.075 10.5751C9.94788 11.0581 10.9274 11.3159 11.925 11.3251H12C13.0632 11.3033 14.1004 10.9922 15 10.4251C15.6763 10.0231 16.2633 9.48712 16.725 8.8501H20.1Z" stroke="#4F4F4F" stroke-width="2" stroke-linecap="round" stroke-linejoin="round"/>
<path d="M6.07501 8.85006V2.92505H9.07501V10.3501" stroke="#4F4F4F" stroke-width="2" stroke-linecap="round" stroke-linejoin="round"/>
<path d="M9.07501 10.575V1.5H12V11.325" stroke="#4F4F4F" stroke-width="2" stroke-linecap="round" stroke-linejoin="round"/>
<path d="M12 11.325V4.94995H15V10.425" stroke="#4F4F4F" stroke-width="2" stroke-linecap="round" stroke-linejoin="round"/>
<path d="M15 10.4249V2.3999H18V8.84991" stroke="#4F4F4F" stroke-width="2" stroke-linecap="round" stroke-linejoin="round"/>
</svg>
