<svg width="101" height="113" viewBox="0 0 101 113" fill="none" xmlns="http://www.w3.org/2000/svg">
<path d="M51.5402 0C49.4969 0 47.4537 0.520914 45.6107 1.56277C41.8046 3.71861 8.23093 23.4097 1.37997 49.5603C-2.32997 63.7216 1.58826 81.0564 11.3559 93.727C20.9472 106.157 35.2181 113.001 51.5482 113.001C74.0643 113.001 93.2149 99.0165 100.322 77.3699C102.398 71.0627 98.96 64.2585 92.6539 62.1908C86.3479 60.1151 79.545 63.5532 77.4777 69.8605C73.6075 81.6335 63.6796 88.9505 51.5562 88.9505C42.5979 88.9505 35.4825 85.6166 30.4104 79.0368C24.5851 71.4874 23.1107 61.5737 24.6572 55.6672C26.2517 49.5844 31.5722 42.9726 37.8703 37.0821C41.8927 33.3154 49.7373 31.3198 55.9072 32.4338C61.1155 33.3715 65.0658 37.2023 65.0658 37.2023C65.0658 37.2023 59.8174 41.3537 57.3415 43.3493C52.3415 47.3724 51.0754 54.6494 54.7773 59.8827C58.8078 65.5729 66.7245 66.6307 72.0931 62.3511C72.2534 62.2229 76.1556 59.1053 80.0498 55.4588C87.1972 48.7749 91.476 43.2531 90.7389 36.3768C89.9696 29.2201 84.585 21.919 72.7341 11.9813C65.7709 6.13893 58.6556 2.31612 58.3752 2.12378C56.3319 0.721281 53.9521 0.00799765 51.5643 0.00799765L51.5402 0Z" fill="#FFFBF8"/>
</svg>
