<svg width="101" height="113" viewBox="0 0 101 113" fill="none" xmlns="http://www.w3.org/2000/svg">
<path d="M51.5402 113.001C49.4969 113.001 47.4537 112.48 45.6107 111.439C41.8046 109.283 8.23093 89.5917 1.37997 63.4411C-2.32997 49.2798 1.58826 31.9449 11.3559 19.2744C20.9472 6.8442 35.2181 0 51.5482 0C74.0643 0 93.2149 13.9849 100.322 35.6315C102.398 41.9387 98.96 48.7429 92.6539 50.8106C86.3479 52.8863 79.545 49.4481 77.4777 43.1409C73.6075 31.3679 63.6796 24.0509 51.5562 24.0509C42.5979 24.0509 35.4825 27.3848 30.4104 33.9645C24.5851 41.514 23.1107 51.4277 24.6572 57.3342C26.2517 63.417 31.5722 70.0288 37.8703 75.9193C41.8927 79.686 49.7373 81.6816 55.9072 80.5676C61.1155 79.6299 65.0658 75.7991 65.0658 75.7991C65.0658 75.7991 59.8174 71.6477 57.3415 69.6521C52.3415 65.629 51.0755 58.352 54.7774 53.1187C58.8079 47.4285 66.7245 46.3706 72.0931 50.6503C72.2534 50.7785 76.1556 53.8961 80.0498 57.5426C87.1972 64.2265 91.4761 69.7483 90.739 76.6246C89.9697 83.7813 84.585 91.0823 72.7341 101.02C65.7709 106.862 58.6556 110.685 58.3752 110.878C56.3319 112.28 53.9521 112.993 51.5643 112.993L51.5402 113.001Z" fill="#FFFBF8"/>
</svg>
