<svg width="24" height="24" viewBox="0 0 24 24" fill="none" xmlns="http://www.w3.org/2000/svg">
<path d="M20.8166 8.02307C22.0175 6.82221 22.0175 4.87523 20.8166 3.67437C19.6158 2.47351 17.6688 2.47349 16.4679 3.67436L3.82483 16.3174C2.62396 17.5183 2.62398 19.4653 3.82484 20.6662C5.0257 21.867 6.97268 21.867 8.17354 20.6661L20.8166 8.02307Z" stroke="#4F4F4F" stroke-width="2" stroke-linecap="round" stroke-linejoin="round"/>
<path d="M16.3499 3.82647L3.78106 16.3953C3.17625 15.7905 2.83646 14.9702 2.83646 14.1149C2.83646 13.2595 3.17622 12.4392 3.78102 11.8344L11.736 3.87949C12.0328 3.56852 12.3888 3.32006 12.7831 3.14867C13.1774 2.97728 13.6019 2.88642 14.0318 2.88148C14.4617 2.87654 14.8881 2.95759 15.2862 3.11988C15.6843 3.28216 16.046 3.52241 16.3499 3.82647Z" stroke="#4F4F4F" stroke-width="2" stroke-linecap="round" stroke-linejoin="round"/>
<path d="M8.21607 20.7604L20.7849 8.19155C21.3897 8.79635 21.7295 9.61665 21.7295 10.472C21.7295 11.3273 21.3897 12.1476 20.7849 12.7524L12.8299 20.7073C12.2251 21.3121 11.4049 21.6519 10.5495 21.6519C9.69421 21.6519 8.87391 21.3121 8.26911 20.7073L8.21607 20.7604Z" stroke="#4F4F4F" stroke-width="2" stroke-linecap="round" stroke-linejoin="round"/>
<path d="M5.87046 17.7103C7.37046 16.2103 8.42048 17.2603 9.92048 15.8353C11.4205 14.4103 10.2955 13.2853 11.7955 11.7853C13.2955 10.2853 14.3455 11.3353 15.8455 9.91035C17.3455 8.48535 16.2205 7.36035 17.7205 5.86035" stroke="#4F4F4F" stroke-width="2" stroke-linecap="round" stroke-linejoin="round"/>
</svg>
