<svg width="32" height="32" viewBox="0 0 32 32" fill="none" xmlns="http://www.w3.org/2000/svg">
<path d="M16.0364 0H15.9636C7.14713 0 0 7.14713 0 15.9636V16.0364C0 24.8529 7.14713 32 15.9636 32H16.0364C24.8529 32 32 24.8529 32 16.0364V15.9636C32 7.14713 24.8529 0 16.0364 0Z" fill="#85031F"/>
<path d="M20.9513 6.51025H11.0496C8.3141 6.51025 6.08868 8.73567 6.08868 11.4712V20.5298C6.08868 23.2653 8.3141 25.4907 11.0496 25.4907H20.9513C23.6868 25.4907 25.9122 23.2653 25.9122 20.5298V11.4712C25.9122 8.73567 23.6868 6.51025 20.9513 6.51025ZM7.83875 11.4712C7.83875 9.70095 9.27938 8.26031 11.0496 8.26031H20.9513C22.7216 8.26031 24.1622 9.70095 24.1622 11.4712V20.5298C24.1622 22.3 22.7216 23.7407 20.9513 23.7407H11.0496C9.27938 23.7407 7.83875 22.3 7.83875 20.5298V11.4712Z" fill="#FFFBF8"/>
<path d="M16.0005 20.6138C18.5443 20.6138 20.615 18.5442 20.615 15.9993C20.615 13.4543 18.5454 11.3848 16.0005 11.3848C13.4556 11.3848 11.386 13.4543 11.386 15.9993C11.386 18.5442 13.4556 20.6138 16.0005 20.6138ZM16.0005 13.1359C17.5802 13.1359 18.865 14.4207 18.865 16.0004C18.865 17.58 17.5802 18.8648 16.0005 18.8648C14.4208 18.8648 13.136 17.58 13.136 16.0004C13.136 14.4207 14.4208 13.1359 16.0005 13.1359Z" fill="#FFFBF8"/>
<path d="M21.042 12.1309C21.727 12.1309 22.2853 11.5736 22.2853 10.8872C22.2853 10.2009 21.7281 9.64355 21.042 9.64355C20.3558 9.64355 19.7986 10.2009 19.7986 10.8872C19.7986 11.5736 20.3558 12.1309 21.042 12.1309Z" fill="#FFFBF8"/>
</svg>
