<svg width="24" height="20" viewBox="0 0 24 20" fill="none" xmlns="http://www.w3.org/2000/svg">
<g clip-path="url(#clip0_1451_4679)">
<path d="M22.13 19.34H1.88C0.84 19.34 0 18.51 0 17.48C0 16.45 0.84 15.61 1.87 15.61H22.12C23.15 15.61 23.99 16.45 23.99 17.48C23.99 18.51 23.15 19.35 22.12 19.35L22.13 19.34Z" fill="#85031F"/>
<path d="M24 11.81C24 12.84 23.16 13.68 22.13 13.68H1.88C0.84 13.68 0 12.84 0 11.81C0 10.78 0.84 9.94 1.87 9.94H3.93L6.94 12.95L9.95 9.94H22.11C23.15 9.94 23.98 10.78 23.98 11.81H24Z" fill="#85031F"/>
<path d="M23.89 5.55C23.02 3.09 20.88 0.79 13.89 0.09C12.63 -0.03 11.37 -0.03 10.11 0.09C3.10999 0.79 0.979987 3.09 0.0999874 5.55C-0.320013 6.75 0.599987 8.01 1.86999 8.01H22.13C23.4 8.01 24.32 6.75 23.89 5.55ZM11.68 2.64C11.78 2.34 11.95 2.12 12.06 2.16C12.17 2.2 12.19 2.47 12.1 2.77C12 3.07 11.83 3.28 11.72 3.25C11.6 3.21 11.59 2.94 11.68 2.64ZM6.24999 3.83C5.93999 3.81 5.68999 3.71 5.68999 3.59C5.69999 3.47 5.95999 3.38 6.26999 3.39C6.58999 3.41 6.83999 3.52 6.83999 3.64C6.82999 3.76 6.56999 3.84 6.24999 3.83ZM6.82999 2.3C6.71999 2.36 6.51999 2.18 6.36999 1.9C6.22999 1.62 6.19999 1.34 6.29999 1.29C6.40999 1.23 6.60999 1.41 6.75999 1.69C6.89999 1.97 6.93999 2.25 6.82999 2.3ZM7.44999 2.6C7.32999 2.59 7.24999 2.33 7.25999 2.02C7.26999 1.7 7.37999 1.45 7.49999 1.45C7.61999 1.46 7.70999 1.72 7.69999 2.04C7.67999 2.35 7.56999 2.6 7.44999 2.6ZM9.37999 3.83C9.26999 3.87 9.07999 3.67 8.96999 3.38C8.85999 3.08 8.85999 2.81 8.96999 2.76C9.07999 2.72 9.26999 2.93 9.37999 3.22C9.48999 3.52 9.48999 3.79 9.37999 3.83ZM9.30999 1.53C9.09999 1.3 8.99999 1.04 9.08999 0.96C9.17999 0.88 9.41999 1.01 9.62999 1.24C9.83999 1.48 9.93999 1.73 9.84999 1.81C9.75999 1.89 9.50999 1.77 9.30999 1.53ZM10.05 4.13C9.92999 4.43 9.74999 4.63 9.63999 4.59C9.52999 4.54 9.52999 4.27 9.63999 3.97C9.75999 3.68 9.94999 3.48 10.06 3.52C10.17 3.57 10.16 3.84 10.05 4.13ZM10.21 3.1C9.91999 2.98 9.72999 2.78 9.76999 2.67C9.81999 2.57 10.09 2.58 10.39 2.7C10.67 2.83 10.87 3.02 10.82 3.13C10.77 3.24 10.5 3.23 10.21 3.1ZM10.96 0.52C11.08 0.49 11.23 0.72 11.29 1.04C11.36 1.34 11.31 1.61 11.2 1.64C11.08 1.66 10.93 1.43 10.87 1.13C10.8 0.81 10.84 0.54 10.96 0.52ZM11.58 5.46C11.28 5.36 11.07 5.2 11.1 5.08C11.14 4.97 11.41 4.95 11.71 5.05C12.01 5.14 12.23 5.31 12.19 5.42C12.16 5.54 11.88 5.55 11.58 5.46ZM13.16 2.29C13.36 2.05 13.6 1.91 13.69 1.99C13.78 2.07 13.69 2.32 13.49 2.57C13.29 2.81 13.06 2.95 12.96 2.87C12.87 2.79 12.96 2.53 13.16 2.29ZM13.45 3.96C13.15 3.84 12.95 3.66 13 3.55C13.04 3.44 13.32 3.44 13.61 3.56C13.9 3.67 14.1 3.86 14.06 3.97C14.01 4.08 13.74 4.08 13.45 3.97V3.96ZM15.13 2.23C15.05 2.32 14.8 2.23 14.56 2.03C14.31 1.82 14.18 1.59 14.26 1.49C14.34 1.4 14.6 1.49 14.84 1.7C15.08 1.9 15.21 2.14 15.13 2.23ZM15.68 4.68C15.59 4.98 15.42 5.19 15.3 5.16C15.19 5.12 15.17 4.85 15.27 4.55C15.36 4.25 15.53 4.03 15.64 4.07C15.76 4.11 15.78 4.38 15.68 4.68ZM17.1 3.68C16.99 3.71 16.82 3.49 16.74 3.18C16.66 2.88 16.69 2.6 16.8 2.57C16.92 2.54 17.08 2.76 17.16 3.07C17.24 3.37 17.22 3.65 17.1 3.68ZM17.99 2.34C17.69 2.23 17.49 2.05 17.53 1.94C17.57 1.83 17.84 1.82 18.14 1.93C18.43 2.04 18.64 2.22 18.6 2.34C18.56 2.45 18.28 2.45 17.99 2.34Z" fill="#85031F"/>
</g>
<defs>
<clipPath id="clip0_1451_4679">
<rect width="24" height="19.34" fill="white"/>
</clipPath>
</defs>
</svg>
