<svg width="24" height="24" viewBox="0 0 24 24" fill="none" xmlns="http://www.w3.org/2000/svg">
<path d="M9.75 6.825L12 3L20.925 18.525C14.925 21.9 9 21.9 3 18.525L7.35 11.025" stroke="#4F4F4F" stroke-width="2" stroke-linejoin="round"/>
<path d="M4.27501 15.8999C6.58211 17.3356 9.24516 18.0966 11.9625 18.0966C14.6799 18.0966 17.3429 17.3356 19.65 15.8999" stroke="#4F4F4F" stroke-width="2" stroke-linejoin="round"/>
<path d="M13.425 15.3749C14.212 15.3749 14.85 14.7369 14.85 13.9499C14.85 13.1629 14.212 12.5249 13.425 12.5249C12.638 12.5249 12 13.1629 12 13.9499C12 14.7369 12.638 15.3749 13.425 15.3749Z" stroke="#4F4F4F" stroke-width="2" stroke-linejoin="round"/>
<path d="M11.325 9.07495C11.325 9.73136 11.0642 10.3609 10.6001 10.825C10.1359 11.2892 9.50642 11.5499 8.85001 11.5499C8.30952 11.5249 7.78813 11.3424 7.35001 11.0249L9.75 6.82495C10.1999 7.0106 10.5872 7.3211 10.8663 7.71979C11.1454 8.11848 11.3046 8.58872 11.325 9.07495Z" stroke="#4F4F4F" stroke-width="2" stroke-linejoin="round"/>
</svg>
