<svg width="25" height="24" viewBox="0 0 25 24" fill="none" xmlns="http://www.w3.org/2000/svg">
<path d="M23.1 19.5001V21.2251H1.5V19.5001C1.51532 17.102 2.33391 14.7783 3.825 12.9001C4.82247 11.604 6.10696 10.5569 7.57751 9.84112C9.04806 9.12537 10.6646 8.76047 12.3 8.77508C13.9524 8.7692 15.5838 9.14517 17.0669 9.87371C18.55 10.6023 19.8447 11.6637 20.85 12.9751C22.2886 14.848 23.0784 17.1385 23.1 19.5001Z" stroke="#4F4F4F" stroke-width="2" stroke-linecap="round" stroke-linejoin="round"/>
<path d="M22.05 10.125C22.0505 10.6561 21.9446 11.182 21.7385 11.6715C21.5324 12.161 21.2303 12.6042 20.85 12.975C19.8447 11.6636 18.55 10.6022 17.0669 9.87365C15.5838 9.1451 13.9524 8.76913 12.3 8.77501C10.6646 8.76041 9.04806 9.1253 7.57751 9.84105C6.10696 10.5568 4.82247 11.6039 3.825 12.9C3.1218 12.1446 2.72133 11.1568 2.7 10.125C2.69003 9.60657 2.78354 9.09135 2.97506 8.60949C3.16659 8.12763 3.45228 7.68881 3.81543 7.31869C4.17857 6.94856 4.61188 6.65454 5.09001 6.45388C5.56813 6.25321 6.08147 6.14992 6.6 6.15001C7.25934 6.16367 7.90444 6.34431 8.475 6.67502C8.53249 5.68017 8.96863 4.74502 9.69388 4.06161C10.4191 3.37819 11.3785 2.99835 12.375 3.00001C13.3663 3.01589 14.3158 3.40162 15.0374 4.08152C15.7589 4.76142 16.2003 5.68644 16.275 6.67502C16.8456 6.34431 17.4907 6.16367 18.15 6.15001C18.6685 6.14992 19.1819 6.25321 19.66 6.45388C20.1381 6.65454 20.5714 6.94856 20.9346 7.31869C21.2977 7.68881 21.5834 8.12763 21.7749 8.60949C21.9665 9.09135 22.06 9.60657 22.05 10.125Z" stroke="#4F4F4F" stroke-width="2" stroke-linecap="round" stroke-linejoin="round"/>
<path d="M7.425 14.775L8.4 13.8" stroke="#4F4F4F" stroke-width="2" stroke-linecap="round" stroke-linejoin="round"/>
<path d="M12.225 16.425L13.2 17.475" stroke="#4F4F4F" stroke-width="2" stroke-linecap="round" stroke-linejoin="round"/>
<path d="M15.75 14.325L16.275 13.8" stroke="#4F4F4F" stroke-width="2" stroke-linecap="round" stroke-linejoin="round"/>
</svg>
