<svg width="26" height="25" viewBox="0 0 26 25" fill="none" xmlns="http://www.w3.org/2000/svg">
<path d="M7.06579 23.321C3.30555 21.2948 0.75 17.3208 0.75 12.75C0.75 6.12258 6.12258 0.75 12.75 0.75C19.3774 0.75 24.75 6.12258 24.75 12.75C24.75 16.7883 22.7553 20.3606 19.6974 22.5356C19.2941 22.8224 18.8723 23.0849 18.4342 23.321" stroke="#FFFBF8" stroke-width="1.5" stroke-linecap="round"/>
<path d="M7.56082 6.26339C7.56082 5.90516 7.27041 5.61475 6.91217 5.61475C6.55393 5.61475 6.26352 5.90516 6.26352 6.26339V12.7499C6.26352 14.5633 7.50384 16.0871 9.18244 16.5192V23.7769C9.18244 24.3143 9.61805 24.7499 10.1554 24.7499C10.6928 24.7499 11.1284 24.3143 11.1284 23.7769V16.5192C12.807 16.0871 14.0473 14.5633 14.0473 12.7499V6.26339C14.0473 5.90516 13.7569 5.61475 13.3987 5.61475C13.0404 5.61475 12.75 5.90516 12.75 6.26339V11.4526H10.8041V6.26339C10.8041 5.90516 10.5136 5.61475 10.1554 5.61475C9.79717 5.61475 9.50676 5.90516 9.50676 6.26339V11.4526H7.56082L7.56082 6.26339Z" fill="#FFFBF8"/>
<path d="M18.2635 15.9932C19.0658 14.9234 16.3176 6.55029 16.3176 6.55029V17.9392C16.3176 17.9392 17.2905 17.2905 18.2635 15.9932Z" fill="#FFFBF8"/>
<path d="M16.3176 6.58781V23.777M16.3176 6.55029C16.3176 6.55029 19.0658 14.9234 18.2635 15.9932C17.2905 17.2905 16.3176 17.9392 16.3176 17.9392V6.55029Z" stroke="#FFFBF8" stroke-width="1.5" stroke-linecap="round" stroke-linejoin="round"/>
</svg>
