<svg width="110" height="112" viewBox="0 0 110 112" fill="none" xmlns="http://www.w3.org/2000/svg">
<path d="M109.927 45.5766C110.132 44.7115 109.74 43.7996 108.968 43.3554L34.3361 0.270001C33.3717 -0.285299 32.1325 0.0420472 31.5713 1.01236L0.270001 55.2271C-0.285299 56.1916 0.0420472 57.4308 1.01236 57.9919L5.44889 60.5521C7.48304 57.5944 10.47 55.4726 13.9771 54.5374C17.8759 53.4911 21.9442 54.0288 25.4338 56.0455C28.9293 58.0621 31.4252 61.3179 32.4715 65.2166C33.4126 68.7238 33.0736 72.3712 31.5246 75.6095L52.7779 87.8787L79.3797 41.8005C80.9228 39.1351 84.3423 38.2174 87.0136 39.7547L108.361 52.0824L109.921 45.5824L109.927 45.5766ZM60.9496 65.4388C59.3246 68.2503 55.7181 69.2206 52.9007 67.5957L16.7069 46.6989C13.8953 45.0739 12.925 41.4674 14.55 38.65L29.2449 13.1939C30.8699 10.3823 34.4764 9.41201 37.2938 11.037L73.4877 31.9338C76.2993 33.5588 77.2695 37.1711 75.6446 39.9827L60.9496 65.4388Z" fill="#FFFBF8"/>
<path d="M59.5409 61.0607L57.9978 63.7379C57.3139 64.9244 55.7882 65.3336 54.6075 64.6497L18.4137 43.7529C17.2271 43.069 16.8179 41.5434 17.5018 40.3627L19.045 37.6855L59.5409 61.0666V61.0607Z" fill="#FFFBF8"/>
<path d="M67.736 46.8744L61.2477 58.1149L20.7518 34.7338L27.24 23.4934C27.8129 24.4637 28.6312 25.3054 29.6775 25.9075C31.4018 26.9012 33.3834 27.0473 35.137 26.4745C35.5111 28.2748 36.6217 29.9173 38.3402 30.911L38.3927 30.9403C40.1054 31.9281 42.0811 32.0742 43.8289 31.4956C44.203 33.2959 45.3136 34.9384 47.0321 35.9262L47.0788 35.9555C48.7915 36.9433 50.7672 37.0895 52.5149 36.5108C52.889 38.3111 53.9996 39.9536 55.7181 40.9415L55.7648 40.9707C57.4833 41.9644 59.4591 42.1047 61.2068 41.526C61.5867 43.3322 62.7032 44.9747 64.4275 45.9742C65.468 46.5763 66.6078 46.8686 67.7301 46.8744H67.736Z" fill="#FFFBF8"/>
<path d="M72.6927 38.2817L70.641 41.8356C69.735 43.4022 67.7126 43.9341 66.1285 43.0222C64.5445 42.1104 63.9949 40.0879 64.901 38.5214L68.1918 32.8164L71.7808 34.8856C72.9674 35.5695 73.3766 37.0951 72.6869 38.2759L72.6927 38.2817Z" fill="#FFFBF8"/>
<path d="M65.2342 31.1331L61.9492 36.8206C61.0432 38.3871 59.0324 38.9307 57.46 38.0247L57.4132 37.9955C55.8467 37.0894 55.3031 35.0786 56.2091 33.5063L59.4941 27.8188L65.2342 31.1331Z" fill="#FFFBF8"/>
<path d="M56.5481 26.118L53.2631 31.8054C52.3571 33.3719 50.3463 33.9156 48.7739 33.0095L48.7272 32.9803C47.1606 32.0743 46.617 30.0635 47.523 28.4912L50.8081 22.8037L56.5481 26.118Z" fill="#FFFBF8"/>
<path d="M47.8621 21.0967L44.577 26.7842C43.671 28.3507 41.6602 28.8943 40.0879 27.9883L40.0353 27.9591C38.4687 27.053 37.931 25.0423 38.8311 23.4758L42.1162 17.7883L47.8562 21.1026L47.8621 21.0967Z" fill="#FFFBF8"/>
<path d="M39.1819 16.0641L35.891 21.7691C34.985 23.3356 32.9625 23.8675 31.3784 22.9556C29.7944 22.0438 29.2449 20.0213 30.1509 18.4548L32.2026 14.9009C32.8865 13.7143 34.4121 13.3051 35.5929 13.989L39.1877 16.0641H39.1819Z" fill="#FFFBF8"/>
<path d="M28.5669 73.8911C30.9868 68.49 28.9702 62.0135 23.7387 58.9915C18.5072 55.9695 11.8845 57.4659 8.41828 62.259C8.18446 62.5805 7.96819 62.9195 7.76361 63.2702C7.38951 63.9249 7.0797 64.5971 6.84005 65.281C5.03386 70.4716 7.10894 76.3928 12.0423 79.2453C16.9757 82.0978 23.1425 80.9287 26.7373 76.7669C27.2108 76.2175 27.6433 75.6154 28.0174 74.9607C28.222 74.61 28.4032 74.2476 28.5669 73.8852V73.8911ZM24.066 75.2238C21.3538 77.9652 17.0342 78.6549 13.5446 76.6383C10.055 74.6217 8.49426 70.5359 9.51134 66.8183C9.70423 66.1169 9.98478 65.4271 10.3706 64.7666C10.5752 64.4159 10.8031 64.0769 11.0428 63.7671C13.6615 60.406 18.4429 59.3948 22.2365 61.5868C26.03 63.7788 27.5498 68.4199 25.9482 72.3713C25.7962 72.7396 25.6209 73.1019 25.4163 73.4527C25.0363 74.1132 24.5804 74.7036 24.0719 75.2179L24.066 75.2238Z" fill="#FFFBF8"/>
<path d="M22.4644 71.7575C22.0728 72.4356 21.5467 72.9967 20.9447 73.4234C19.3138 74.5749 17.0926 74.7503 15.2514 73.6923C13.4101 72.6285 12.4515 70.6177 12.6327 68.6303C12.697 67.8938 12.925 67.1632 13.3166 66.4793C13.5212 66.1227 13.7667 65.7954 14.0414 65.5089C15.6781 63.7612 18.3669 63.2995 20.5296 64.5503C22.6924 65.8012 23.6393 68.3556 22.9437 70.6528C22.8268 71.0327 22.669 71.4068 22.4644 71.7634V71.7575Z" fill="#FFFBF8"/>
<path d="M81.8406 104.649C84.2605 99.2478 82.2439 92.7713 77.0124 89.7493C71.7809 86.7273 65.1582 88.2237 61.692 93.0168C61.4581 93.3383 61.2419 93.6773 61.0373 94.028C60.6632 94.6827 60.3534 95.3549 60.1138 96.0388C58.3076 101.229 60.3827 107.151 65.3161 110.003C70.2494 112.85 76.4162 111.687 80.0052 107.525C80.4787 106.975 80.9112 106.373 81.2853 105.719C81.4898 105.368 81.6711 105.011 81.8348 104.643L81.8406 104.649ZM77.3456 105.987C74.6334 108.723 70.3137 109.413 66.8241 107.402C63.3345 105.385 61.7738 101.3 62.7909 97.582C62.9838 96.8805 63.2644 96.1908 63.6502 95.5303C63.8548 95.1796 64.0827 94.8405 64.3223 94.5307C66.941 91.1697 71.7224 90.1585 75.516 92.3505C79.3096 94.5424 80.8293 99.1836 79.2277 103.135C79.0816 103.503 78.9004 103.866 78.6959 104.216C78.3159 104.877 77.8599 105.467 77.3456 105.982V105.987Z" fill="#FFFBF8"/>
<path d="M75.7381 102.515C75.3464 103.194 74.8204 103.755 74.2183 104.181C72.5875 105.333 70.3663 105.508 68.525 104.444C66.6838 103.381 65.7252 101.37 65.9064 99.3824C65.9707 98.6459 66.1986 97.9152 66.5902 97.2313C66.7948 96.8748 67.0403 96.5474 67.3092 96.261C68.9517 94.5133 71.6347 94.0515 73.7975 95.3024C75.9602 96.5533 76.9072 99.1077 76.2116 101.405C76.0947 101.785 75.9368 102.159 75.7322 102.515H75.7381Z" fill="#FFFBF8"/>
<path d="M104.415 91.9239L101.551 84.8453C101.124 83.7931 101.036 82.6475 101.305 81.5427L107.542 55.5313L85.3185 42.701C84.278 42.0989 82.9395 42.4555 82.3374 43.5018L55.7356 89.5799L58.7284 91.3101C60.7626 88.3524 63.7495 86.2306 67.2566 85.2954C71.1554 84.2491 75.2237 84.7868 78.7133 86.8034C82.2088 88.8201 84.7047 92.0759 85.751 95.9747C86.6921 99.4818 86.3531 103.129 84.8041 106.368L89.001 108.793C89.8369 109.278 90.9007 109.097 91.5378 108.372L104.064 94.0223C104.567 93.4436 104.701 92.6428 104.415 91.9356V91.9239ZM76.5039 78.8422L70.5768 75.4227C69.7643 74.9551 69.4837 73.9088 69.9513 73.0963C70.4189 72.2838 71.4652 72.0032 72.2777 72.4709L78.2048 75.8903C79.0173 76.3579 79.2979 77.4043 78.8303 78.2168C78.3626 79.0292 77.3163 79.3098 76.5039 78.8422ZM96.0738 80.6016C94.6008 81.2621 92.9466 81.1745 91.5495 80.3678L76.0946 71.4421C73.7156 70.0685 72.8973 67.0172 74.2709 64.6382L81.8581 51.4922C83.2317 49.1132 86.2829 48.2949 88.6619 49.6685L99.8089 56.1041C101.679 57.1855 102.638 59.3307 102.194 61.4409L98.9146 77.0711C98.5814 78.6551 97.5468 79.9411 96.0738 80.5958V80.6016Z" fill="#FFFBF8"/>
<path d="M94.6826 77.4859C94.2149 77.6963 93.6947 77.6671 93.2504 77.4099L77.7956 68.4842C77.0416 68.0517 76.7844 67.0872 77.2169 66.3332L84.8041 53.1872C85.2366 52.4331 86.2011 52.176 86.9551 52.6085L98.102 59.0441C98.6924 59.3831 98.9964 60.0612 98.8561 60.7334L95.5769 76.3636C95.4717 76.8663 95.1443 77.2696 94.6767 77.4801L94.6826 77.4859Z" fill="#FFFBF8"/>
</svg>
